<svg xmlns="http://www.w3.org/2000/svg" xmlns:xlink="http://www.w3.org/1999/xlink" width="36" zoomAndPan="magnify" viewBox="0 0 36 36.000001" height="36" preserveAspectRatio="xMidYMid meet" version="1.0"><defs><g/><clipPath id="487d352f92"><path d="M 0.488281 0 L 35.511719 0 L 35.511719 35.027344 L 0.488281 35.027344 Z M 0.488281 0 " clip-rule="nonzero"/></clipPath><clipPath id="157fece707"><path d="M 4.136719 0 L 31.863281 0 C 32.832031 0 33.761719 0.382812 34.445312 1.070312 C 35.128906 1.753906 35.511719 2.679688 35.511719 3.648438 L 35.511719 31.378906 C 35.511719 32.347656 35.128906 33.273438 34.445312 33.957031 C 33.761719 34.644531 32.832031 35.027344 31.863281 35.027344 L 4.136719 35.027344 C 3.167969 35.027344 2.238281 34.644531 1.554688 33.957031 C 0.871094 33.273438 0.488281 32.347656 0.488281 31.378906 L 0.488281 3.648438 C 0.488281 2.679688 0.871094 1.753906 1.554688 1.070312 C 2.238281 0.382812 3.167969 0 4.136719 0 Z M 4.136719 0 " clip-rule="nonzero"/></clipPath><clipPath id="51c66018f7"><path d="M 0.488281 0 L 35.511719 0 L 35.511719 35.027344 L 0.488281 35.027344 Z M 0.488281 0 " clip-rule="nonzero"/></clipPath><clipPath id="4643d4df45"><path d="M 4.136719 0 L 31.863281 0 C 32.832031 0 33.761719 0.382812 34.445312 1.070312 C 35.128906 1.753906 35.511719 2.679688 35.511719 3.648438 L 35.511719 31.378906 C 35.511719 32.347656 35.128906 33.273438 34.445312 33.957031 C 33.761719 34.644531 32.832031 35.027344 31.863281 35.027344 L 4.136719 35.027344 C 3.167969 35.027344 2.238281 34.644531 1.554688 33.957031 C 0.871094 33.273438 0.488281 32.347656 0.488281 31.378906 L 0.488281 3.648438 C 0.488281 2.679688 0.871094 1.753906 1.554688 1.070312 C 2.238281 0.382812 3.167969 0 4.136719 0 Z M 4.136719 0 " clip-rule="nonzero"/></clipPath><clipPath id="dceb492bfd"><rect x="0" width="36" y="0" height="36"/></clipPath><clipPath id="2ee8c57088"><path d="M 6 0 L 30 0 L 30 35.027344 L 6 35.027344 Z M 6 0 " clip-rule="nonzero"/></clipPath><clipPath id="c4937598a8"><rect x="0" width="24" y="0" height="36"/></clipPath></defs><g clip-path="url(#487d352f92)"><g clip-path="url(#157fece707)"><g transform="matrix(1, 0, 0, 1, 0.000000000000000056, 0.000000000000010582)"><g clip-path="url(#dceb492bfd)"><g clip-path="url(#51c66018f7)"><g clip-path="url(#4643d4df45)"><path fill="#d25900" d="M 0.488281 0 L 35.511719 0 L 35.511719 35.027344 L 0.488281 35.027344 Z M 0.488281 0 " fill-opacity="1" fill-rule="nonzero"/></g></g></g></g></g></g><g clip-path="url(#2ee8c57088)"><g transform="matrix(1, 0, 0, 1, 6, 0.000000000000010582)"><g clip-path="url(#c4937598a8)"><g fill="#ffffff" fill-opacity="1"><g transform="translate(1.7463, 28.015795)"><g><path d="M 2.375 -4.03125 L 5.453125 -19.46875 C 5.742188 -20.894531 6.332031 -21.898438 7.21875 -22.484375 C 8.113281 -23.066406 9.269531 -23.21875 10.6875 -22.9375 L 14.65625 -22.140625 C 16.0625 -21.859375 17.0625 -21.273438 17.65625 -20.390625 C 18.25 -19.515625 18.398438 -18.363281 18.109375 -16.9375 L 17.484375 -13.8125 C 17.421875 -13.476562 17.234375 -13.34375 16.921875 -13.40625 L 13.890625 -14 C 13.578125 -14.070312 13.453125 -14.273438 13.515625 -14.609375 L 13.96875 -16.890625 C 14.132812 -17.691406 13.816406 -18.171875 13.015625 -18.328125 L 10.84375 -18.765625 C 10.039062 -18.921875 9.554688 -18.597656 9.390625 -17.796875 L 6.640625 -4.046875 C 6.484375 -3.253906 6.804688 -2.78125 7.609375 -2.625 L 9.78125 -2.1875 C 10.582031 -2.03125 11.0625 -2.347656 11.21875 -3.140625 L 12.03125 -7.1875 L 10.46875 -7.5 C 10.144531 -7.5625 10.015625 -7.753906 10.078125 -8.078125 L 10.6875 -11.09375 C 10.75 -11.414062 10.941406 -11.546875 11.265625 -11.484375 L 16.328125 -10.46875 C 16.640625 -10.40625 16.765625 -10.210938 16.703125 -9.890625 L 15.03125 -1.5 C 14.75 -0.101562 14.160156 0.890625 13.265625 1.484375 C 12.378906 2.085938 11.234375 2.25 9.828125 1.96875 L 5.859375 1.171875 C 4.441406 0.890625 3.4375 0.300781 2.84375 -0.59375 C 2.25 -1.488281 2.09375 -2.632812 2.375 -4.03125 Z M 2.375 -4.03125 "/></g></g></g></g></g></g></svg>